<svg id="Capa_1" enable-background="new 0 0 512 512" height="512" viewBox="0 0 512 512" width="512" xmlns="http://www.w3.org/2000/svg"><path d="m284.923 470.575-15.4-11.262-15.4 11.262c-1.439 1.052-3.463.025-3.463-1.758v-72.119h37.725v72.119c.001 1.783-2.024 2.81-3.462 1.758z" fill="#fa6931"/><path d="m269.523 396.698v62.615l15.4 11.262c1.439 1.052 3.463.025 3.463-1.758v-72.119z" fill="#fc5327"/><path d="m108.358 407.968h-85.736c-8.284 0-15-6.716-15-15v-336.97c0-8.284 6.716-15 15-15h85.736c8.284 0 15 6.716 15 15v336.971c0 8.284-6.716 14.999-15 14.999z" fill="#fa6931"/><path d="m182.235 407.968h-43.877c-8.284 0-15-6.716-15-15v-336.97c0-8.284 6.716-15 15-15h43.877c8.284 0 15 6.716 15 15v336.971c0 8.284-6.715 14.999-15 14.999z" fill="#e7b467"/><path d="m494.815 392.036-40.972 15.7c-7.736 2.964-16.41-.904-19.374-8.64l-120.573-314.661c-2.964-7.736.904-16.41 8.64-19.374l40.972-15.7c7.736-2.964 16.41.904 19.374 8.64l120.572 314.661c2.965 7.736-.904 16.41-8.639 19.374z" fill="#e7b467"/><path d="m503.366 372.433-120.396-314.203c-3.013-7.863-11.829-11.794-19.691-8.781l-13.027 4.992 115.623 301.745c3.013 7.862-.919 16.679-8.781 19.691l-27.487 10.532 4.773 12.458c3.013 7.863 11.829 11.794 19.692 8.781l40.513-15.524c7.863-3.013 11.794-11.829 8.781-19.691z" fill="#d7a85f"/><path d="m297.971 407.968h-85.736c-8.284 0-15-6.716-15-15v-336.97c0-8.284 6.716-15 15-15h85.736c8.284 0 15 6.716 15 15v336.971c0 8.284-6.716 14.999-15 14.999z" fill="#ae66d8"/><path d="m108.112 40.998h-12.39v324.089c0 8.42-6.826 15.246-15.246 15.246h-72.854v12.391c0 8.42 6.826 15.246 15.246 15.246h85.244c8.42 0 15.246-6.826 15.246-15.246v-336.481c0-8.419-6.826-15.245-15.246-15.245z" fill="#fc5327"/><path d="m181.989 40.998h-12.39v324.089c0 8.42-6.826 15.246-15.246 15.246h-30.995v12.391c0 8.42 6.826 15.246 15.246 15.246h43.386c8.42 0 15.246-6.826 15.246-15.246v-336.481c-.001-8.419-6.826-15.245-15.247-15.245z" fill="#d7a85f"/><path d="m297.725 40.998h-12.39v324.089c0 8.42-6.826 15.246-15.246 15.246h-72.854v12.391c0 8.42 6.826 15.246 15.246 15.246h85.244c8.42 0 15.246-6.826 15.246-15.246v-336.481c0-8.419-6.826-15.245-15.246-15.245z" fill="#9459bc"/><path d="m510.485 369.705-120.397-314.202c-4.513-11.775-17.765-17.684-29.537-13.171l-39.958 15.311v-1.399c0-12.61-10.259-22.869-22.869-22.869h-85.243c-5.853 0-11.197 2.212-15.246 5.842-4.049-3.629-9.393-5.842-15.246-5.842h-43.386c-5.853 0-11.197 2.212-15.246 5.842-4.049-3.629-9.393-5.842-15.246-5.842h-85.242c-12.61 0-22.869 10.258-22.869 22.868v336.479c0 12.61 10.259 22.869 22.869 22.869h6.474c4.21 0 7.623-3.413 7.623-7.623s-3.412-7.623-7.623-7.623h-6.474c-4.204 0-7.623-3.419-7.623-7.623v-336.479c0-4.204 3.419-7.623 7.623-7.623h85.244c4.204 0 7.623 3.419 7.623 7.623v12.331c0 4.21 3.412 7.623 7.623 7.623s7.623-3.413 7.623-7.623v-12.331c0-4.204 3.419-7.623 7.623-7.623h43.386c4.204 0 7.623 3.419 7.623 7.623v336.479c0 4.203-3.419 7.623-7.623 7.623h-43.386c-4.204 0-7.623-3.419-7.623-7.623v-288.574c0-4.21-3.412-7.623-7.623-7.623s-7.623 3.413-7.623 7.623v288.575c0 4.203-3.419 7.623-7.623 7.623h-42.623c-4.21 0-7.623 3.413-7.623 7.623s3.412 7.623 7.623 7.623h42.622c5.853 0 11.197-2.212 15.246-5.842 4.049 3.629 9.393 5.842 15.246 5.842h43.386c5.853 0 11.197-2.212 15.246-5.842 4.049 3.629 9.393 5.842 15.246 5.842h30.556v53.226c0 3.711 2.056 7.06 5.366 8.74 1.41.716 2.93 1.068 4.443 1.068 2.037 0 4.06-.64 5.778-1.897l10.899-7.971 10.899 7.971c2.996 2.191 6.912 2.508 10.22.829 3.31-1.679 5.366-5.028 5.366-8.74v-53.226h1.716c12.61 0 22.869-10.259 22.869-22.869v-27.004c0-4.21-3.412-7.623-7.623-7.623-4.21 0-7.623 3.413-7.623 7.623v27.004c0 4.203-3.419 7.623-7.623 7.623h-85.243c-4.204 0-7.623-3.419-7.623-7.623v-336.48c0-4.204 3.419-7.623 7.623-7.623h85.243c4.204 0 7.623 3.419 7.623 7.623v273.892c0 4.21 3.412 7.623 7.623 7.623 4.21 0 7.623-3.413 7.623-7.623v-206.916l106.668 278.375c2.186 5.704 6.462 10.216 12.041 12.704 2.98 1.329 6.139 1.995 9.305 1.995 2.764 0 5.534-.508 8.192-1.527l40.514-15.524c11.774-4.512 17.683-17.762 13.171-29.537zm-229.722 88.384-6.74-4.929c-2.68-1.96-6.321-1.96-9.001 0l-6.74 4.929v-42.497h22.48v42.497zm211.095-73.083-40.514 15.524c-1.902.728-3.974.673-5.832-.156-1.86-.829-3.284-2.333-4.013-4.234l-120.396-314.202c-1.504-3.925.466-8.342 4.39-9.846l40.514-15.524c.894-.343 1.813-.505 2.719-.505 3.067 0 5.965 1.865 7.127 4.896l120.395 314.201c1.504 3.925-.465 8.342-4.39 9.846z"/><path d="m401.354 189.625c-1.507-3.93-5.91-5.898-9.846-4.391-3.932 1.506-5.897 5.915-4.391 9.846l34.147 89.115c1.163 3.034 4.054 4.897 7.121 4.897.906 0 1.828-.163 2.726-.507 3.932-1.506 5.897-5.915 4.391-9.846z"/><path d="m231.799 151.41v118.578c0 4.21 3.412 7.623 7.623 7.623s7.623-3.413 7.623-7.623v-118.578c0-4.21-3.412-7.623-7.623-7.623s-7.623 3.413-7.623 7.623z"/><path d="m263.933 151.41v118.578c0 4.21 3.412 7.623 7.623 7.623 4.21 0 7.623-3.413 7.623-7.623v-118.578c0-4.21-3.412-7.623-7.623-7.623-4.21 0-7.623 3.413-7.623 7.623z"/><path d="m49.424 143.787c-4.21 0-7.623 3.413-7.623 7.623v118.578c0 4.21 3.412 7.623 7.623 7.623s7.623-3.413 7.623-7.623v-118.578c0-4.21-3.413-7.623-7.623-7.623z"/><path d="m89.18 269.988v-39.3c0-4.21-3.412-7.623-7.623-7.623s-7.623 3.413-7.623 7.623v39.3c0 4.21 3.412 7.623 7.623 7.623s7.623-3.413 7.623-7.623z"/><path d="m167.919 321.575v-68.596c0-4.21-3.412-7.623-7.623-7.623s-7.623 3.413-7.623 7.623v68.596c0 4.21 3.412 7.623 7.623 7.623s7.623-3.413 7.623-7.623z"/></svg>