<svg id="Capa_1" enable-background="new 0 0 512 512" height="512" viewBox="0 0 512 512" width="512" xmlns="http://www.w3.org/2000/svg"><path d="m230.824 182.864h-74.407c-6.075 0-11-4.925-11-11v-26.02h96.407v26.02c0 6.075-4.925 11-11 11z" fill="#c8c1c9"/><path d="m215.98 145.843v25.495c0 6.365-5.16 11.525-11.525 11.525h25.844c6.365 0 11.525-5.16 11.525-11.525v-25.495z" fill="#a698a6"/><path d="m69.347 17.929c4.751 46.335 31.303 100.674 68.361 130.095 9.06 7.193 20.303 11.08 31.872 11.08h48.082c11.569 0 22.811-3.887 31.872-11.08 37.058-29.421 63.61-83.76 68.361-130.095.57-5.559-3.797-10.389-9.385-10.389h-229.779c-5.587.001-9.954 4.831-9.384 10.389z" fill="#c8c1c9"/><path d="m308.509 7.54h-22.057c-9.203 41.12-33.242 84.676-65.023 109.908-9.06 7.193-20.303 11.08-31.872 11.08h-48.082c-11.569 0-22.811-3.887-31.872-11.08-.688-.546-1.364-1.118-2.044-1.68 8.909 12.393 19.053 23.447 30.148 32.256 9.06 7.193 20.303 11.08 31.872 11.08h48.082c11.569 0 22.812-3.887 31.872-11.08 37.058-29.421 63.61-83.76 68.361-130.095.57-5.558-3.797-10.389-9.385-10.389z" fill="#a698a6"/><path d="m408.796 397.846h-368.166c-6.005 0-10.874-4.868-10.874-10.874v-79.46c0-6.005 4.868-10.874 10.874-10.874h368.166c6.005 0 10.874 4.868 10.874 10.874v79.46c0 6.005-4.869 10.874-10.874 10.874z" fill="#2bb080"/><path d="m408.277 296.637h-27.417v51.005c0 6.292-5.101 11.393-11.393 11.393h-339.711v27.417c0 6.292 5.101 11.393 11.393 11.393h367.128c6.292 0 11.393-5.101 11.393-11.393v-78.422c0-6.292-5.101-11.393-11.393-11.393z" fill="#09a66d"/><path d="m477.283 476.87h-386.245c-17.099 0-30.96-13.861-30.96-30.96v-9.564c0-17.099 13.861-30.96 30.96-30.96h386.245s-7.687 19.252-7.687 35.742 7.687 35.742 7.687 35.742z" fill="#eedfda"/><path d="m477.283 405.386h-27.097s-7.687 19.252-7.687 35.742 7.687 35.742 7.687 35.742h27.097s-7.687-19.252-7.687-35.742 7.687-35.742 7.687-35.742z" fill="#ded0cb"/><path d="m415.158 504.016-15.974-11.683-15.974 11.683c-1.492 1.091-3.592.026-3.592-1.823v-54.427h39.133v54.427c-.001 1.849-2.101 2.915-3.593 1.823z" fill="#fa6931"/><path d="m399.184 447.766v44.568l15.974 11.683c1.492 1.091 3.592.026 3.592-1.823v-54.427h-19.566z" fill="#fc5327"/><path d="m392.364 289.097h-240.893c-23.607 0-42.744-19.137-42.744-42.744v-13.204c0-23.607 19.137-42.744 42.744-42.744h240.893s-10.612 26.58-10.612 49.347 10.612 49.345 10.612 49.345z" fill="#eedfda"/><path d="m392.364 190.404h-37.41s-10.612 26.58-10.612 49.346c0 22.767 10.612 49.347 10.612 49.347h37.41s-10.612-26.58-10.612-49.347c-.001-22.766 10.612-49.346 10.612-49.346z" fill="#ded0cb"/><path d="m482.596 469.347c-2.114-6.344-5.459-17.998-5.459-28.219 0-10.179 3.35-21.861 5.464-28.219 3.998-.188 7.184-3.478 7.184-7.523 0-4.165-3.376-7.541-7.541-7.541h-58.881c2.404-3.174 3.848-7.114 3.848-11.393v-78.422c0-10.44-8.494-18.934-18.934-18.934h-1.522c0-4.165-3.376-7.541-7.541-7.541h-1.577c-2.401-6.95-6.601-20.537-7.932-33.96-.411-4.144-4.097-7.179-8.248-6.759-4.144.41-7.17 4.103-6.759 8.247 1.211 12.207 4.452 24.272 7.048 32.471h-230.275c-19.411 0-35.204-15.793-35.204-35.204v-13.204c0-19.411 15.792-35.204 35.204-35.204h230.278c-1.353 4.278-2.883 9.608-4.211 15.464-.921 4.062 1.624 8.1 5.685 9.022 4.061.913 8.1-1.625 9.022-5.686 1.748-7.705 3.912-14.513 5.392-18.8h1.576c4.164 0 7.541-3.376 7.541-7.541s-3.376-7.541-7.541-7.541h-153.762c2.444-3.205 3.914-7.192 3.914-11.525v-13.945c1.687-1.076 3.311-2.233 4.857-3.46 10.613-8.426 20.599-18.923 29.631-31.058h22.704c22.461 0 40.734-18.273 40.734-40.734 0-17.371-10.71-32.317-26.387-38.144 2.122-8.587 3.65-17.086 4.491-25.296.488-4.766-1.073-9.54-4.284-13.097-3.213-3.56-7.807-5.601-12.602-5.601h-168.196c-4.164 0-7.541 3.376-7.541 7.541s3.376 7.541 7.541 7.541h168.197c.697 0 1.15.34 1.407.625.256.284.547.767.476 1.454-4.792 46.738-31.747 98.122-65.549 124.958-2.022 1.605-4.231 3.051-6.567 4.295-2.458 1.311-3.994 3.869-3.994 6.655v18.271c0 2.197-1.787 3.984-3.985 3.984h-73.357c-2.197 0-3.985-1.787-3.985-3.984v-18.271c0-2.785-1.536-5.344-3.994-6.655-2.336-1.244-4.545-2.689-6.567-4.295-33.802-26.836-60.756-78.22-65.549-124.958-.071-.687.22-1.17.476-1.454.258-.286.711-.625 1.407-.625h26.265c4.164 0 7.541-3.376 7.541-7.541s-3.374-7.541-7.539-7.541h-26.264c-4.795 0-9.389 2.041-12.602 5.601-3.212 3.557-4.773 8.331-4.284 13.097 2.448 23.875 10.568 50.181 22.862 74.072 12.981 25.224 29.687 46.373 48.311 61.16 1.546 1.227 3.17 2.384 4.857 3.46v13.949c0 4.712 1.727 9.021 4.57 12.352-23.433 4.266-41.26 24.813-41.26 49.458v13.204c0 18.03 9.544 33.867 23.84 42.744h-83.877c-10.44 0-18.934 8.494-18.934 18.934v16.44c0 4.165 3.376 7.541 7.541 7.541s7.541-3.376 7.541-7.541v-16.44c0-2.125 1.729-3.853 3.853-3.853h367.128c2.124 0 3.853 1.728 3.853 3.853v78.422c0 2.125-1.729 3.853-3.853 3.853h-367.129c-2.124 0-3.853-1.728-3.853-3.853v-28.009c0-4.165-3.376-7.541-7.541-7.541s-7.541 3.376-7.541 7.541v28.009c0 10.44 8.494 18.934 18.934 18.934h27.034c-9.484 7.019-15.646 18.282-15.646 30.959v9.564c0 21.229 17.272 38.501 38.501 38.501h281.038v17.783c0 3.71 2.055 7.057 5.363 8.737 3.31 1.679 7.225 1.362 10.221-.828l11.523-8.427 11.522 8.427c.001 0 .001.001.002.001 1.719 1.257 3.74 1.896 5.776 1.896 1.513 0 3.033-.353 4.444-1.069 3.308-1.68 5.363-5.027 5.363-8.737v-17.784h55.954c4.164 0 7.541-3.376 7.541-7.541.001-4.045-3.188-7.337-7.188-7.522zm-165.856-410.764c9.24 3.951 15.469 13.043 15.469 23.555 0 14.144-11.508 25.653-25.653 25.653h-12.502c2.971-4.825 5.807-9.831 8.478-15.021 5.682-11.039 10.458-22.594 14.208-34.187zm94.469 433.204-7.574-5.54c-2.65-1.937-6.251-1.938-8.902 0l-7.575 5.54v-36.48h24.052v36.48zm55.574-22.458h-40.493v-21.563c0-4.165-3.376-7.541-7.541-7.541h-39.133c-4.164 0-7.541 3.376-7.541 7.541v21.563h-281.037c-12.914 0-23.42-10.506-23.42-23.42v-9.564c0-12.913 10.506-23.419 23.42-23.419h375.745c-2.241 7.583-4.728 18.243-4.728 28.201s2.488 20.619 4.728 28.202z"/><path d="m92.961 338.519h141.244c4.164 0 7.541-3.376 7.541-7.541s-3.376-7.541-7.541-7.541h-141.244c-4.164 0-7.541 3.376-7.541 7.541.001 4.165 3.377 7.541 7.541 7.541z"/><path d="m92.961 368.271h207.272c4.164 0 7.541-3.376 7.541-7.541s-3.376-7.541-7.541-7.541h-207.272c-4.164 0-7.541 3.376-7.541 7.541.001 4.166 3.377 7.541 7.541 7.541z"/></svg>